<svg width="24" height="25" viewBox="0 0 24 25" fill="none" xmlns="http://www.w3.org/2000/svg">
<path d="M9 18.25C8.9 18.25 8.81 18.23 8.71 18.19C8.43 18.08 8.25 17.8 8.25 17.5V11.5C8.25 11.09 8.59 10.75 9 10.75C9.41 10.75 9.75 11.09 9.75 11.5V15.69L10.47 14.97C10.76 14.68 11.24 14.68 11.53 14.97C11.82 15.26 11.82 15.74 11.53 16.03L9.53 18.03C9.39 18.17 9.19 18.25 9 18.25Z" fill="#3D5B6D"/>
<path d="M8.99994 18.25C8.80994 18.25 8.61994 18.18 8.46994 18.03L6.46994 16.03C6.17994 15.74 6.17994 15.26 6.46994 14.97C6.75994 14.68 7.23994 14.68 7.52994 14.97L9.52994 16.97C9.81994 17.26 9.81994 17.74 9.52994 18.03C9.37994 18.18 9.18994 18.25 8.99994 18.25Z" fill="#3D5B6D"/>
<path d="M15 23.25H9C3.57 23.25 1.25 20.93 1.25 15.5V9.5C1.25 4.07 3.57 1.75 9 1.75H14C14.41 1.75 14.75 2.09 14.75 2.5C14.75 2.91 14.41 3.25 14 3.25H9C4.39 3.25 2.75 4.89 2.75 9.5V15.5C2.75 20.11 4.39 21.75 9 21.75H15C19.61 21.75 21.25 20.11 21.25 15.5V10.5C21.25 10.09 21.59 9.75 22 9.75C22.41 9.75 22.75 10.09 22.75 10.5V15.5C22.75 20.93 20.43 23.25 15 23.25Z" fill="#3D5B6D"/>
<path d="M22 11.25H18C14.58 11.25 13.25 9.91999 13.25 6.49999V2.49999C13.25 2.19999 13.43 1.91999 13.71 1.80999C13.99 1.68999 14.31 1.75999 14.53 1.96999L22.53 9.96999C22.74 10.18 22.81 10.51 22.69 10.79C22.57 11.07 22.3 11.25 22 11.25ZM14.75 4.30999V6.49999C14.75 9.07999 15.42 9.74999 18 9.74999H20.19L14.75 4.30999Z" fill="#3D5B6D"/>
</svg>
