<svg width="25" height="25" viewBox="0 0 25 25" fill="none" xmlns="http://www.w3.org/2000/svg">
<path d="M21.51 11.72V16.21C21.51 20.7 19.72 22.5 15.22 22.5H9.83002C9.25002 22.5 8.71998 22.47 8.22998 22.4" stroke="#3D5B6D" stroke-width="1.5" stroke-linecap="round" stroke-linejoin="round"/>
<path d="M3.53998 16.02V11.72" stroke="#3D5B6D" stroke-width="1.5" stroke-linecap="round" stroke-linejoin="round"/>
<path d="M12.53 12.5C14.36 12.5 15.71 11.0101 15.53 9.18005L14.86 2.5H10.19L9.52003 9.18005C9.34003 11.0101 10.7 12.5 12.53 12.5Z" stroke="#3D5B6D" stroke-width="1.5" stroke-linecap="round" stroke-linejoin="round"/>
<path d="M18.83 12.5C20.85 12.5 22.33 10.86 22.13 8.84998L21.85 6.09998C21.49 3.49998 20.49 2.5 17.87 2.5H14.82L15.52 9.51001C15.7 11.16 17.18 12.5 18.83 12.5Z" stroke="#3D5B6D" stroke-width="1.5" stroke-linecap="round" stroke-linejoin="round"/>
<path d="M6.16998 12.5C7.81998 12.5 9.30996 11.16 9.46996 9.51001L9.69 7.30005L10.17 2.5H7.11999C4.49999 2.5 3.50001 3.49998 3.14001 6.09998L2.85998 8.84998C2.65998 10.86 4.14998 12.5 6.16998 12.5Z" stroke="#3D5B6D" stroke-width="1.5" stroke-linecap="round" stroke-linejoin="round"/>
<path d="M9.5 19.5C9.5 20.25 9.28998 20.9601 8.91998 21.5601C8.72998 21.8801 8.49998 22.17 8.22998 22.4C8.19998 22.44 8.17 22.47 8.13 22.5C7.43 23.13 6.51 23.5 5.5 23.5C4.28 23.5 3.18997 22.95 2.46997 22.09C2.44997 22.06 2.42002 22.04 2.40002 22.01C2.28002 21.87 2.17002 21.7201 2.08002 21.5601C1.71002 20.9601 1.5 20.25 1.5 19.5C1.5 18.24 2.08 17.11 3 16.38C3.17 16.24 3.34998 16.12 3.53998 16.02C4.11998 15.69 4.79 15.5 5.5 15.5C6.5 15.5 7.39998 15.86 8.09998 16.47C8.21998 16.56 8.32999 16.67 8.42999 16.78C9.08999 17.5 9.5 18.45 9.5 19.5Z" stroke="#3D5B6D" stroke-width="1.5" stroke-miterlimit="10" stroke-linecap="round" stroke-linejoin="round"/>
<path d="M6.98999 19.48H4.01001" stroke="#3D5B6D" stroke-width="1.5" stroke-miterlimit="10" stroke-linecap="round" stroke-linejoin="round"/>
<path d="M5.5 18.02V21.01" stroke="#3D5B6D" stroke-width="1.5" stroke-miterlimit="10" stroke-linecap="round" stroke-linejoin="round"/>
</svg>
