<svg width="25" height="25" viewBox="0 0 25 25" fill="none" xmlns="http://www.w3.org/2000/svg">
<path d="M12.5 12.5C15.2614 12.5 17.5 10.2614 17.5 7.5C17.5 4.73858 15.2614 2.5 12.5 2.5C9.73858 2.5 7.5 4.73858 7.5 7.5C7.5 10.2614 9.73858 12.5 12.5 12.5Z" stroke="#3D5B6D" stroke-width="1.5" stroke-linecap="round" stroke-linejoin="round"/>
<path d="M19.71 16.24L16.17 19.7801C16.03 19.9201 15.9 20.18 15.87 20.37L15.68 21.72C15.61 22.21 15.95 22.55 16.44 22.48L17.79 22.29C17.98 22.26 18.25 22.13 18.38 21.99L21.92 18.45C22.53 17.84 22.82 17.13 21.92 16.23C21.03 15.34 20.32 15.63 19.71 16.24Z" stroke="#3D5B6D" stroke-width="1.5" stroke-miterlimit="10" stroke-linecap="round" stroke-linejoin="round"/>
<path d="M19.2 16.75C19.5 17.83 20.34 18.67 21.42 18.97" stroke="#3D5B6D" stroke-width="1.5" stroke-miterlimit="10" stroke-linecap="round" stroke-linejoin="round"/>
<path d="M3.90997 22.5C3.90997 18.63 7.76 15.5 12.5 15.5C13.54 15.5 14.54 15.65 15.47 15.93" stroke="#3D5B6D" stroke-width="1.5" stroke-linecap="round" stroke-linejoin="round"/>
</svg>
