<svg width="25" height="25" viewBox="0 0 25 25" fill="none" xmlns="http://www.w3.org/2000/svg">
<path d="M9.5 22.5H15.5C20.5 22.5 22.5 20.5 22.5 15.5V9.5C22.5 4.5 20.5 2.5 15.5 2.5H9.5C4.5 2.5 2.5 4.5 2.5 9.5V15.5C2.5 20.5 4.5 22.5 9.5 22.5Z" stroke="#3D5B6D" stroke-width="1.5" stroke-linecap="round" stroke-linejoin="round"/>
<path d="M9.59998 12.5V11.02C9.59998 9.11 10.95 8.34 12.6 9.29L13.88 10.03L15.16 10.77C16.81 11.72 16.81 13.28 15.16 14.23L13.88 14.97L12.6 15.71C10.95 16.66 9.59998 15.88 9.59998 13.98V12.5Z" stroke="#3D5B6D" stroke-width="1.5" stroke-miterlimit="10" stroke-linecap="round" stroke-linejoin="round"/>
</svg>
