<svg width="26" height="26" viewBox="0 0 26 26" fill="none" xmlns="http://www.w3.org/2000/svg">
<g id="x">
<path id="Vector" fill-rule="evenodd" clip-rule="evenodd" d="M6.81687 6.83073C7.01982 6.62764 7.29504 6.51354 7.58201 6.51354C7.86899 6.51354 8.14421 6.62764 8.34716 6.83073L12.9932 11.4815L17.6393 6.83073C17.7391 6.72726 17.8586 6.64473 17.9906 6.58795C18.1226 6.53118 18.2647 6.50129 18.4084 6.50004C18.5521 6.49879 18.6946 6.5262 18.8276 6.58067C18.9606 6.63514 19.0814 6.71558 19.183 6.8173C19.2846 6.91902 19.365 7.03997 19.4194 7.17311C19.4738 7.30625 19.5012 7.4489 19.5 7.59275C19.4987 7.73659 19.4689 7.87875 19.4121 8.01092C19.3554 8.14309 19.273 8.26263 19.1696 8.36256L14.5235 13.0133L19.1696 17.6641C19.3667 17.8684 19.4758 18.142 19.4734 18.4261C19.4709 18.7101 19.3571 18.9818 19.1564 19.1827C18.9558 19.3836 18.6843 19.4975 18.4006 19.5C18.1168 19.5024 17.8434 19.3932 17.6393 19.1959L12.9932 14.5451L8.34716 19.1959C8.14305 19.3932 7.86967 19.5024 7.58591 19.5C7.30215 19.4975 7.03071 19.3836 6.83005 19.1827C6.62939 18.9818 6.51557 18.7101 6.51311 18.4261C6.51064 18.142 6.61973 17.8684 6.81687 17.6641L11.4629 13.0133L6.81687 8.36256C6.61398 8.15941 6.5 7.88391 6.5 7.59665C6.5 7.30938 6.61398 7.03388 6.81687 6.83073Z" fill="#9CA3AF"/>
</g>
</svg>
